 <svg version="1.0" xmlns="http://www.w3.org/2000/svg"  width="300.000000pt" height="317.000000pt" viewBox="0 0 300.000000 317.000000"  preserveAspectRatio="xMidYMid meet">  <g transform="translate(0.000000,317.000000) scale(0.100000,-0.100000)" fill="#000000" stroke="none"> <path d="M1698 2786 c-90 -21 -164 -75 -341 -253 -143 -142 -235 -223 -254 -223 -9 0 -13 14 -13 43 0 56 -34 150 -67 187 -14 17 -49 44 -76 62 -46 29 -57 32 -131 32 -111 0 -155 -15 -220 -75 -168 -153 -156 -422 24 -532 14 -8 49 -20 78 -27 l52 -12 0 -113 c0 -63 -4 -116 -9 -119 -12 -8 -68 14 -141 57 -36 20 -93 51 -127 67 -62 29 -63 31 -63 69 0 30 -6 44 -22 55 -53 38 -130 5 -143 -61 -5 -27 -2 -37 20 -59 23 -23 32 -26 70 -21 37 6 53 1 112 -31 37 -21 79 -45 93 -54 14 -9 36 -19 50 -23 28 -8 141 -75 153 -90 4 -5 5 -84 2 -175 -6 -156 -8 -166 -31 -195 -14 -16 -41 -55 -61 -85 -19 -30 -50 -71 -68 -90 -17 -19 -47 -57 -66 -85 -86 -127 -162 -215 -186 -215 -62 0 -97 -37 -95 -100 2 -47 39 -80 92 -80 31 0 43 6 65 32 24 28 27 38 22 79 -5 43 -3 49 37 95 24 27 50 63 59 81 10 18 27 43 39 57 13 13 63 79 112 145 49 67 95 121 103 121 12 0 53 -49 134 -162 21 -28 54 -70 75 -95 21 -25 47 -59 57 -76 11 -18 35 -49 53 -70 37 -40 39 -48 23 -79 -14 -27 -5 -59 27 -91 37 -37 91 -37 126 1 35 38 40 58 24 96 -16 39 -28 48 -75 56 -29 4 -46 19 -101 87 -76 95 -148 190 -209 276 -24 34 -50 65 -57 70 -7 4 -22 23 -34 42 -21 34 -22 42 -15 199 l7 164 78 51 c43 28 85 51 93 51 8 0 32 12 53 28 21 15 66 43 99 63 51 31 67 35 107 31 40 -3 51 0 72 22 33 32 35 87 6 116 -31 31 -102 28 -129 -6 -12 -15 -21 -36 -21 -48 0 -31 -9 -40 -65 -70 -27 -15 -81 -47 -120 -71 -69 -44 -149 -85 -167 -85 -5 0 -7 54 -6 121 l3 121 64 20 c54 17 73 29 131 88 l67 69 63 -15 c35 -8 102 -33 149 -55 47 -22 111 -50 141 -61 30 -11 79 -31 108 -45 98 -44 200 -66 273 -60 36 3 82 12 100 20 58 24 172 116 212 170 64 88 76 110 98 175 18 53 20 77 15 148 -6 78 -10 90 -46 144 -21 31 -57 72 -78 89 -49 39 -150 96 -185 105 -55 13 -164 15 -219 2z m193 -45 c129 -44 229 -125 271 -220 63 -139 -41 -369 -217 -480 -110 -70 -203 -74 -351 -15 -33 13 -64 24 -69 24 -5 0 -60 24 -124 53 -64 30 -162 69 -218 88 -57 18 -103 36 -103 40 0 3 23 18 50 33 32 17 115 92 223 201 195 196 265 250 377 288 33 12 110 6 161 -12z m-1035 -152 c63 -16 147 -94 168 -156 9 -26 16 -73 16 -104 l0 -58 -50 -18 c-40 -14 -50 -22 -50 -40 0 -13 6 -23 13 -23 6 0 19 -5 27 -10 12 -8 8 -16 -25 -50 -61 -64 -108 -84 -190 -85 -58 0 -76 4 -105 24 -96 66 -120 104 -127 205 -8 105 14 173 75 232 53 52 92 74 142 85 52 10 57 10 106 -2z m417 -601 c17 -26 1 -50 -30 -46 -34 4 -43 36 -17 55 21 15 34 13 47 -9z m-917 -33 c7 -18 -13 -45 -33 -45 -17 0 -27 24 -19 45 7 20 45 19 52 0z m858 -1191 c23 -9 20 -41 -4 -49 -35 -11 -54 17 -28 43 14 14 12 14 32 6z m-856 -31 c-4 -20 -35 -30 -50 -15 -15 15 0 32 28 32 19 0 25 -5 22 -17z"/> <path d="M1734 2692 c-16 -10 -32 -43 -43 -88 -5 -22 -33 -100 -61 -174 -51 -134 -80 -228 -80 -255 0 -10 10 -15 30 -15 24 0 33 7 48 38 11 20 22 50 26 67 13 51 21 55 126 55 l97 0 33 -75 c31 -72 34 -75 66 -75 18 0 35 4 38 9 8 12 -49 159 -125 327 -32 72 -59 138 -59 146 0 35 -64 62 -96 40z m61 -149 c37 -98 46 -136 33 -145 -19 -12 -116 -10 -124 3 -7 12 56 189 67 189 3 0 14 -21 24 -47z"/> <path d="M837 2444 c-47 -47 -27 -113 39 -130 34 -9 76 22 88 65 21 73 -71 121 -127 65z m76 -36 c6 -19 -3 -38 -18 -38 -18 0 -28 17 -21 35 7 18 33 20 39 3z"/> <path d="M622 2437 c-28 -29 -29 -87 -4 -110 10 -10 35 -17 55 -17 63 0 99 74 61 128 -21 31 -83 31 -112 -1z m73 -37 c7 -11 -12 -40 -25 -40 -11 0 -21 30 -14 41 7 12 31 11 39 -1z"/> <path d="M840 2199 c-43 -23 -98 -24 -128 -3 -28 19 -52 12 -52 -15 0 -72 224 -61 238 11 5 24 -21 27 -58 7z"/> <path d="M2280 1942 c-68 -19 -170 -118 -170 -165 0 -11 -15 -34 -34 -51 -42 -40 -51 -69 -36 -107 7 -16 10 -32 6 -36 -9 -9 -228 100 -309 154 -37 25 -91 54 -120 65 -29 11 -70 26 -92 35 -65 25 -162 22 -215 -6 -25 -13 -61 -31 -81 -41 -40 -21 -128 -115 -164 -176 -30 -50 -46 -173 -32 -248 17 -91 129 -209 232 -245 157 -55 271 -10 529 213 92 79 116 91 116 55 0 -11 14 -34 30 -51 25 -24 37 -29 63 -25 25 4 55 -7 132 -45 118 -59 191 -104 198 -122 3 -8 7 -68 8 -135 l2 -121 -30 -37 c-16 -21 -35 -48 -42 -61 -7 -13 -41 -59 -77 -103 -35 -44 -64 -83 -64 -87 0 -5 -8 -17 -18 -28 -9 -10 -25 -31 -35 -46 -11 -18 -26 -28 -41 -28 -33 0 -65 -29 -72 -67 -5 -27 -1 -37 24 -62 36 -36 75 -34 111 6 18 21 22 34 17 64 -4 26 -2 40 9 49 8 7 15 17 15 22 0 6 28 47 63 92 34 44 68 92 75 106 8 14 33 47 57 74 l43 48 18 -28 c10 -16 32 -45 50 -64 18 -19 73 -87 123 -150 71 -90 89 -120 84 -138 -7 -28 14 -80 38 -92 48 -26 104 2 115 57 5 26 1 37 -19 57 -15 14 -37 26 -50 26 -16 0 -31 10 -42 27 -10 14 -44 55 -76 89 -33 35 -59 68 -59 73 0 5 -31 45 -69 90 -39 44 -75 89 -80 100 -6 11 -11 77 -11 150 l0 130 86 56 c136 88 190 114 234 112 45 -1 75 21 85 64 5 21 0 31 -25 53 -17 14 -42 26 -56 26 -33 0 -75 -43 -61 -64 11 -19 -242 -174 -263 -161 -5 3 -10 44 -10 91 0 74 2 84 18 84 34 0 107 57 147 114 39 57 40 60 40 145 -1 53 -6 95 -14 111 -28 51 -86 112 -125 132 -42 21 -134 32 -176 20z m145 -66 c62 -29 89 -58 109 -119 19 -56 20 -83 5 -142 -12 -49 -66 -110 -116 -131 -57 -24 -163 -14 -163 16 0 5 16 17 35 26 42 20 49 54 11 54 -14 0 -28 -4 -31 -10 -10 -16 -68 -11 -91 8 -30 24 -44 75 -37 130 7 56 17 77 57 120 68 73 136 88 221 48z m-811 -132 c45 -25 94 -53 111 -62 16 -9 53 -32 82 -49 29 -18 80 -47 114 -64 l61 -31 -66 -46 c-37 -26 -87 -61 -111 -78 -24 -17 -69 -53 -99 -80 -129 -117 -250 -184 -329 -184 -104 0 -259 124 -292 232 -20 67 -19 80 6 152 28 77 88 156 159 205 74 52 109 61 204 55 71 -4 88 -10 160 -50z m545 -243 c16 -30 104 -81 139 -81 l32 0 0 -90 c0 -49 -4 -90 -9 -90 -12 0 -191 89 -222 111 -15 10 -29 32 -32 48 -4 18 -18 36 -37 47 -16 10 -30 22 -30 26 0 4 19 12 43 19 23 6 51 15 62 19 32 13 44 11 54 -9z m586 -101 c0 -8 -8 -16 -17 -18 -13 -2 -18 3 -18 18 0 15 5 20 18 18 9 -2 17 -10 17 -18z m-745 -10 c0 -5 -4 -10 -10 -10 -5 0 -10 5 -10 10 0 6 5 10 10 10 6 0 10 -4 10 -10z m743 -954 c3 -8 -1 -17 -9 -20 -23 -9 -24 -8 -24 14 0 23 25 27 33 6z m-693 -11 c0 -8 -7 -15 -15 -15 -8 0 -15 7 -15 15 0 8 7 15 15 15 8 0 15 -7 15 -15z"/> <path d="M2217 1796 c-24 -19 -32 -76 -14 -100 22 -30 84 -27 109 4 47 58 -35 141 -95 96z m53 -56 c0 -5 -4 -10 -10 -10 -5 0 -10 5 -10 10 0 6 5 10 10 10 6 0 10 -4 10 -10z"/> <path d="M1390 1704 c-69 -21 -92 -44 -94 -90 -1 -35 2 -39 26 -42 21 -3 30 3 42 27 20 37 29 43 77 48 31 4 43 0 64 -21 40 -41 31 -67 -30 -83 -27 -7 -63 -13 -80 -13 -89 -1 -150 -109 -109 -195 31 -66 114 -83 197 -42 46 24 46 24 66 4 27 -28 76 -16 67 16 -3 12 -9 91 -13 174 -7 182 -16 204 -86 222 -57 14 -71 13 -127 -5z m133 -243 c13 -51 -48 -111 -112 -111 -28 0 -61 22 -61 40 0 26 26 61 49 66 14 3 37 10 51 14 42 14 67 11 73 -9z"/> </g> </svg> 