 <svg version="1.0" xmlns="http://www.w3.org/2000/svg"  width="300.000000pt" height="317.000000pt" viewBox="0 0 300.000000 317.000000"  preserveAspectRatio="xMidYMid meet">  <g transform="translate(0.000000,317.000000) scale(0.100000,-0.100000)" fill="#000000" stroke="none"> <path d="M1712 2785 c-54 -12 -126 -45 -142 -65 -3 -4 -32 -26 -65 -50 -33 -24 -69 -56 -80 -70 -30 -38 -224 -230 -277 -273 -26 -21 -52 -36 -58 -32 -6 4 -10 23 -8 43 5 59 -31 158 -75 208 -21 24 -43 44 -49 44 -5 0 -23 10 -40 21 -26 19 -40 21 -121 17 -102 -5 -136 -18 -202 -76 -66 -59 -109 -150 -114 -239 -2 -48 24 -150 45 -174 8 -8 14 -21 14 -27 0 -25 93 -86 157 -103 l65 -16 -1 -131 c-1 -86 2 -133 9 -137 6 -4 14 -4 17 -1 3 3 6 63 7 133 1 70 5 133 8 139 4 7 27 15 51 18 52 8 158 88 178 136 8 16 17 30 22 30 38 0 218 -60 272 -91 17 -9 77 -36 135 -59 58 -24 109 -47 114 -51 6 -5 20 -9 31 -9 12 0 25 -3 29 -7 10 -11 34 -15 116 -20 93 -6 144 7 207 52 26 20 62 44 79 56 18 11 45 39 60 62 16 23 41 58 56 77 52 68 70 134 66 245 -3 93 -6 103 -35 145 -75 107 -189 182 -311 206 -86 16 -79 16 -160 -1z m262 -75 c90 -46 151 -103 192 -180 30 -57 25 -180 -9 -250 -68 -138 -145 -218 -262 -276 -51 -24 -178 -26 -250 -2 -96 32 -161 56 -240 93 -44 20 -93 42 -110 50 -35 15 -178 61 -217 69 -41 9 -34 21 28 46 46 19 86 53 242 207 257 254 323 295 462 291 68 -3 86 -8 164 -48z m-1052 -146 c97 -67 132 -133 126 -241 l-3 -58 -47 -16 c-58 -19 -64 -24 -48 -44 17 -20 36 -19 60 5 16 16 20 17 20 5 0 -8 -5 -15 -10 -15 -6 0 -9 -4 -8 -10 4 -15 -92 -109 -132 -130 -92 -47 -192 -34 -270 37 -28 25 -57 58 -65 72 -22 44 -29 143 -14 213 12 57 19 69 79 128 76 76 109 90 202 86 55 -2 75 -8 110 -32z"/> <path d="M1755 2691 c-26 -5 -32 -13 -49 -66 -11 -33 -27 -82 -37 -110 -61 -167 -119 -337 -119 -347 0 -10 42 -10 56 0 6 4 21 42 34 85 22 73 26 78 48 72 15 -4 21 -2 17 5 -3 5 -1 10 4 10 6 0 11 -3 11 -7 0 -5 37 -8 82 -8 92 0 86 5 126 -100 15 -42 23 -51 46 -53 44 -5 48 9 21 65 -13 28 -34 80 -46 115 -11 34 -24 68 -29 73 -11 14 -89 193 -101 232 -11 36 -22 42 -64 34z m17 -38 c-10 -4 -9 -10 5 -25 10 -11 16 -21 14 -22 -9 -2 52 -178 66 -192 12 -12 18 -12 32 -2 9 7 13 8 9 4 -4 -5 -4 -14 1 -20 14 -19 20 -56 8 -56 -6 0 -21 10 -34 22 -20 19 -36 22 -106 23 -96 1 -96 1 -53 100 30 67 36 87 36 110 0 13 -5 27 -11 30 -11 7 18 35 36 34 6 0 4 -3 -3 -6z m-88 -278 c13 -19 13 -23 2 -19 -8 3 -17 0 -21 -5 -13 -22 -24 0 -13 24 6 14 12 25 13 25 2 0 10 -11 19 -25z"/> <path d="M845 2445 c-47 -46 -19 -125 44 -125 62 0 95 87 49 130 -29 27 -64 25 -93 -5z m73 -47 c-2 -25 -8 -34 -24 -36 -11 -2 -26 4 -33 12 -17 20 6 56 37 56 20 0 23 -4 20 -32z"/> <path d="M645 2448 c-49 -28 -59 -81 -22 -116 41 -39 97 -25 116 28 23 67 -35 122 -94 88z m60 -49 c10 -30 -19 -58 -43 -43 -22 14 -28 44 -10 55 23 15 46 10 53 -12z"/> <path d="M677 2203 c-14 -13 -6 -43 14 -54 65 -34 241 13 201 53 -7 7 -25 4 -57 -12 -51 -25 -104 -23 -135 5 -9 8 -20 12 -23 8z"/> <path d="M1203 2038 c-23 -11 -47 -63 -37 -80 9 -14 -15 -36 -60 -57 -22 -10 -64 -34 -93 -52 -93 -61 -124 -79 -134 -79 -6 0 -31 -14 -55 -31 -25 -17 -50 -28 -57 -25 -7 4 -25 15 -42 25 -16 11 -35 20 -41 20 -6 1 -44 20 -85 42 -112 62 -141 78 -171 89 -25 9 -28 14 -28 58 0 46 -1 49 -36 61 -44 16 -86 2 -103 -35 -16 -37 -14 -61 10 -85 18 -18 29 -20 68 -16 35 4 53 1 76 -13 17 -11 48 -28 70 -39 22 -12 54 -30 70 -40 17 -11 40 -20 51 -20 12 -1 26 -7 32 -14 6 -7 34 -24 61 -37 57 -26 60 -35 55 -135 -1 -38 -3 -113 -3 -166 l-1 -95 -50 -56 c-27 -31 -50 -61 -50 -66 0 -6 -20 -34 -45 -63 -24 -29 -57 -71 -72 -93 -42 -61 -124 -169 -145 -189 -10 -10 -18 -22 -18 -27 0 -6 -14 -10 -30 -10 -40 0 -76 -24 -89 -60 -15 -44 22 -94 72 -98 62 -5 106 63 77 118 -8 15 -6 24 7 38 54 58 84 96 99 124 9 18 37 57 63 88 25 31 77 100 116 154 38 53 75 95 81 94 12 -3 144 -163 144 -174 0 -3 29 -41 65 -84 36 -43 65 -81 65 -85 0 -4 22 -33 50 -65 50 -57 50 -57 34 -89 -18 -36 -13 -59 19 -89 37 -35 70 -37 105 -7 39 33 47 58 31 97 -12 30 -43 48 -82 48 -24 0 -33 10 -166 185 -46 60 -89 115 -96 120 -6 6 -23 28 -37 50 -14 22 -46 65 -72 95 l-48 55 6 115 c3 63 6 142 6 176 l0 61 60 34 c33 19 85 48 115 64 31 17 94 54 140 83 47 29 90 50 96 46 21 -12 81 -6 100 12 26 24 26 87 -1 114 -22 22 -62 25 -97 8z m83 -54 c8 -30 -11 -54 -41 -54 -48 0 -60 55 -16 76 31 16 50 8 57 -22z m-918 -33 c7 -47 -56 -72 -78 -31 -12 22 0 55 22 63 23 8 53 -10 56 -32z m867 -1191 c17 -19 17 -21 0 -40 -37 -41 -87 -13 -70 40 4 12 15 20 29 20 13 0 31 -9 41 -20z m-866 -12 c11 -31 4 -47 -25 -54 -28 -7 -54 10 -54 35 0 43 64 58 79 19z"/> <path d="M2226 1908 c-59 -40 -105 -94 -112 -134 -3 -16 -21 -45 -40 -64 -58 -60 -42 -111 38 -119 4 -1 14 -16 23 -33 36 -75 104 -128 163 -128 l42 0 0 -105 c0 -58 -4 -105 -8 -105 -4 0 -32 16 -62 35 -30 19 -61 35 -68 35 -8 0 -43 16 -78 36 -56 31 -64 39 -64 65 0 57 -78 76 -122 29 -41 -44 -3 -105 60 -97 23 2 50 -2 72 -13 75 -38 127 -65 165 -87 22 -12 54 -30 72 -39 38 -20 42 -38 43 -187 l0 -107 -40 -54 c-22 -29 -40 -56 -40 -60 0 -5 -9 -18 -20 -30 -34 -37 -110 -134 -110 -141 0 -3 -18 -30 -40 -60 -28 -38 -47 -55 -63 -55 -63 0 -91 -74 -44 -118 31 -29 68 -28 97 3 19 20 22 31 16 63 -5 31 -2 43 14 57 11 10 20 23 20 30 0 6 22 39 50 73 27 33 60 79 74 100 13 21 30 45 38 53 7 8 26 31 41 51 33 45 44 47 59 11 7 -16 23 -40 37 -54 29 -29 37 -39 111 -135 29 -38 60 -75 68 -81 9 -7 12 -13 8 -13 -4 0 5 -11 21 -24 24 -21 26 -26 15 -50 -23 -52 37 -117 90 -97 77 29 62 127 -19 133 -18 1 -33 6 -33 10 0 11 -101 138 -110 138 -3 0 -14 15 -25 33 -10 17 -50 67 -87 110 -38 43 -73 88 -77 100 -11 28 -14 269 -4 283 5 6 24 19 43 29 19 10 55 32 80 49 60 43 170 97 182 90 5 -3 25 -3 44 1 27 5 39 13 49 38 16 38 7 61 -35 82 -45 23 -100 -6 -100 -54 0 -21 -13 -34 -69 -68 -38 -24 -72 -43 -76 -43 -13 0 -125 -81 -125 -91 0 -6 -7 -6 -19 1 -14 7 -21 6 -24 -3 -4 -9 -6 -9 -6 1 -1 7 10 17 24 22 26 10 26 11 23 107 l-3 97 31 7 c37 7 113 59 114 76 0 6 4 13 8 15 4 2 19 21 32 42 19 32 23 52 22 111 -1 84 -15 123 -67 183 -53 61 -100 82 -182 82 -60 0 -74 -4 -117 -32z m212 -30 c93 -46 139 -164 104 -270 -22 -68 -93 -134 -156 -143 -59 -9 -107 0 -142 28 l-28 22 43 7 c47 8 71 23 71 44 0 18 -30 17 -54 -1 -28 -21 -67 -18 -99 8 -23 18 -29 32 -34 79 -9 87 2 122 55 179 71 77 148 92 240 47z m-325 -225 c6 -48 -4 -59 -28 -33 -15 17 -16 24 -7 45 16 36 29 31 35 -12z m643 -238 c7 -18 -13 -45 -33 -45 -17 0 -27 24 -19 45 7 20 45 19 52 0z m-741 -25 c0 -29 -32 -41 -41 -16 -9 24 4 48 23 44 12 -2 18 -12 18 -28z m46 -952 c9 -18 8 -24 -6 -34 -9 -7 -23 -10 -31 -7 -17 6 -19 50 -1 56 21 9 26 7 38 -15z m693 6 c11 -30 -33 -60 -49 -34 -11 17 5 50 25 50 10 0 21 -7 24 -16z"/> <path d="M2228 1796 c-49 -37 -37 -109 19 -114 48 -5 73 13 73 51 0 38 -7 50 -37 66 -27 14 -34 14 -55 -3z m47 -56 c0 -36 -29 -33 -33 3 -3 23 0 28 15 25 12 -2 18 -12 18 -28z"/> <path d="M1360 1844 c-8 -3 -48 -22 -89 -42 -62 -31 -86 -51 -142 -116 -92 -107 -116 -202 -85 -327 15 -59 22 -70 94 -139 62 -60 89 -79 136 -95 71 -23 131 -22 214 4 71 23 92 37 251 171 199 167 271 210 349 210 12 0 26 10 33 21 10 20 9 21 -19 17 -17 -2 -29 -1 -26 3 2 4 -12 13 -31 19 -49 16 -234 113 -327 172 -43 26 -86 48 -96 48 -10 0 -22 4 -28 10 -32 32 -182 60 -234 44z m145 -48 c36 -7 91 -31 135 -57 115 -69 198 -115 289 -160 l83 -41 -63 -35 c-35 -19 -75 -45 -89 -57 -14 -12 -38 -30 -54 -40 -15 -10 -54 -41 -86 -70 -133 -119 -240 -182 -329 -193 -44 -5 -60 -2 -115 26 -36 18 -87 55 -119 87 -44 45 -59 69 -77 124 -21 66 -21 70 -5 126 21 74 35 100 80 154 51 61 127 119 177 135 55 17 99 17 173 1z"/> <path d="M1398 1700 c-52 -15 -96 -49 -101 -78 -3 -15 -3 -30 0 -34 7 -13 53 -9 53 5 1 6 10 23 21 37 16 19 31 25 69 26 40 2 52 -2 73 -24 56 -60 44 -84 -48 -97 -27 -4 -60 -8 -71 -10 -92 -14 -140 -109 -98 -194 9 -18 27 -37 41 -42 34 -13 100 -11 126 2 37 20 76 56 69 64 -4 4 0 6 8 3 10 -3 14 -15 12 -36 -3 -29 -1 -32 26 -32 36 0 44 8 32 31 -6 9 -12 86 -15 169 -3 83 -10 160 -16 171 -21 41 -112 60 -181 39z m162 -190 c0 -5 -6 -10 -13 -10 -9 0 -12 -10 -9 -31 13 -89 -118 -169 -178 -109 -39 39 -18 94 38 105 54 11 107 29 127 42 23 16 35 17 35 3z m10 -130 c0 -13 -12 -19 -26 -13 -8 3 -12 8 -9 12 5 10 35 10 35 1z"/> </g> </svg> 